<svg width="11" height="15" viewBox="0 0 11 15" fill="none" xmlns="http://www.w3.org/2000/svg">
<path d="M5.49977 0C2.46734 0 0 2.47734 0 5.52236C0 6.31662 0.161911 7.07496 0.480993 7.7765C1.85609 10.7977 4.49253 13.9875 5.26799 14.8931C5.32609 14.9608 5.41079 14.9998 5.49992 14.9998C5.58906 14.9998 5.67376 14.9608 5.73186 14.8931C6.50701 13.9877 9.14345 10.798 10.519 7.7765C10.8382 7.07496 11 6.31662 11 5.52236C10.9997 2.47734 8.53235 0 5.49977 0ZM5.49977 8.3907C3.92454 8.3907 2.64286 7.10382 2.64286 5.52221C2.64286 3.94044 3.92454 2.65357 5.49977 2.65357C7.075 2.65357 8.35668 3.94044 8.35668 5.52221C8.35683 7.10382 7.07515 8.3907 5.49977 8.3907Z" fill="#ccc"/>
</svg>
