<svg width="14" height="10" viewBox="0 0 14 10" fill="none" xmlns="http://www.w3.org/2000/svg">
<path d="M12.2127 9.99976C12.4984 9.99976 12.746 9.90542 12.9564 9.71916L9.35522 6.11816C9.26882 6.18002 9.18507 6.24018 9.10597 6.29738C8.83647 6.49592 8.61774 6.65085 8.44978 6.76186C8.28185 6.87313 8.05842 6.98655 7.7795 7.10234C7.50041 7.21827 7.24039 7.27605 6.99919 7.27605H6.99213H6.98507C6.74384 7.27605 6.48382 7.21829 6.20475 7.10234C5.92568 6.98655 5.70224 6.87313 5.53447 6.76186C5.36654 6.65085 5.14792 6.49594 4.87829 6.29738C4.80315 6.2423 4.71982 6.18187 4.62972 6.11719L1.02783 9.71916C1.23827 9.90542 1.48601 9.99976 1.77171 9.99976H12.2127Z" fill="#ccc"/>
<path d="M1.3532 3.84964C1.08373 3.66997 0.84476 3.4642 0.636719 3.23242V8.71191L3.81079 5.53763C3.1758 5.09428 2.35764 4.53227 1.3532 3.84964Z" fill="#ccc"/>
<path d="M12.6381 3.8496C11.672 4.50352 10.8508 5.06646 10.1746 5.53874L13.3474 8.71167V3.23242C13.144 3.45952 12.9076 3.66514 12.6381 3.8496Z" fill="#ccc"/>
<path d="M12.2124 0.0126953H1.77154C1.40729 0.0126953 1.12725 0.135692 0.931068 0.381432C0.734727 0.627287 0.636719 0.934757 0.636719 1.30349C0.636719 1.60134 0.766781 1.92406 1.02679 2.27175C1.2868 2.61931 1.56347 2.8923 1.85667 3.09087C2.0174 3.20443 2.50211 3.54139 3.31081 4.10164C3.74736 4.40415 4.127 4.66782 4.45324 4.89535C4.73132 5.0891 4.97114 5.25689 5.16914 5.39613C5.19187 5.41207 5.22761 5.43764 5.27506 5.47157C5.32618 5.50828 5.39086 5.55487 5.47066 5.61249C5.62433 5.72363 5.752 5.81346 5.85367 5.88209C5.95521 5.95075 6.07824 6.02743 6.22256 6.11258C6.36677 6.19762 6.50279 6.26156 6.63045 6.30409C6.75814 6.3466 6.87634 6.36792 6.98508 6.36792H6.99214H6.9992C7.10792 6.36792 7.22614 6.3466 7.35385 6.30409C7.48149 6.26156 7.61739 6.19775 7.76171 6.11258C7.9059 6.02743 8.02876 5.95058 8.13063 5.88209C8.2323 5.81346 8.35997 5.72365 8.51366 5.61249C8.5933 5.55487 8.65798 5.50826 8.7091 5.47168C8.75657 5.43762 8.79229 5.41221 8.81516 5.39613C8.96941 5.2888 9.20978 5.12171 9.53295 4.89731C10.121 4.48874 10.987 3.8874 12.1347 3.09087C12.4799 2.84979 12.7683 2.55887 13 2.21852C13.2314 1.87816 13.3474 1.52115 13.3474 1.14759C13.3474 0.835482 13.2349 0.56842 13.0105 0.345987C12.7858 0.123831 12.5197 0.0126953 12.2124 0.0126953Z" fill="#ccc"/>
</svg>
